<svg width="640" height="800" viewBox="0 0 640 800" fill="none" xmlns="http://www.w3.org/2000/svg">
<path d="M54.5 184L175 174L219 65.5L320.5 6L420.5 65.5L476.5 174L568.5 184L605 747.5L539 774H124L28 747.5L54.5 184Z" fill="#6B7280"/>
<path d="M639.205 693.355L593.169 174.539C592.341 164.272 583.73 156.489 573.297 156.489H476.258C476.092 70.2132 405.879 0 319.603 0C233.326 0 163.113 70.2132 162.948 156.489H65.9077C55.6407 156.489 47.0296 164.272 46.036 174.539L0 693.355C0 694.018 0 694.515 0 695.177C0 752.97 53.1567 800 118.402 800H520.803C586.048 800 639.205 752.97 639.205 695.177C639.205 694.515 639.205 694.018 639.205 693.355ZM319.603 39.7433C384.02 39.7433 436.349 92.072 436.514 156.489H202.691C202.857 92.072 255.185 39.7433 319.603 39.7433ZM520.803 760.091H118.402C75.3467 760.091 40.2401 731.443 39.7433 695.839L84.1234 196.233H162.948V265.949C162.948 276.879 171.89 285.821 182.819 285.821C193.749 285.821 202.691 276.879 202.691 265.949V196.233H436.514V265.949C436.514 276.879 445.456 285.821 456.386 285.821C467.315 285.821 476.258 276.879 476.258 265.949V196.233H555.082L599.462 696.005C598.965 731.443 563.858 760.091 520.803 760.091Z" fill="#374151"/>
</svg>
