<svg width="800" height="800" viewBox="0 0 800 800" fill="none" xmlns="http://www.w3.org/2000/svg">
<g clip-path="url(#clip0_5475_1129)">
<path d="M562.912 147.662C545.207 181.651 524.849 219.159 500.992 261.738C518.651 292.001 536.569 322.392 553.952 351.872C559.687 361.599 565.404 371.293 571.093 380.952H709.838C725.846 355.27 739.284 333.487 751.438 313.523C736.994 254.841 708.209 201.744 669.009 158.182C633.636 153.822 598.042 150.291 562.912 147.662Z" fill="#6B7280"/>
<path d="M246.065 448.155C240.319 438.407 234.614 428.725 228.913 419.047H90.1644C74.1301 444.773 60.6901 466.555 48.5625 486.477C63.0044 545.157 91.7873 598.253 130.983 641.815C166.368 646.176 201.966 649.71 237.086 652.336C254.791 618.348 275.149 580.839 299.001 538.27C281.347 508.013 263.444 477.632 246.065 448.155Z" fill="#6B7280"/>
<path d="M90.1644 380.952H228.907C234.601 371.283 240.324 361.578 246.063 351.843C263.441 322.371 281.353 291.992 299.006 261.738C275.159 219.174 254.797 181.662 237.086 147.662C201.955 150.291 166.359 153.824 130.985 158.184C91.7892 201.746 63.0063 254.841 48.5625 313.523C60.7149 333.483 74.1549 355.266 90.1644 380.952Z" fill="#6B7280"/>
<path d="M529.994 671.608C512.333 637.648 491.954 600.078 467.992 557.305C422.821 557.945 377.181 557.945 332.006 557.305C308.053 600.063 287.672 637.638 270.004 671.608C286.747 699.808 302.137 726.341 316.77 752.227C343.499 758.541 371.358 761.899 399.989 761.899C428.629 761.899 456.495 758.539 483.231 752.223C497.872 726.32 513.261 699.789 529.994 671.608Z" fill="#6B7280"/>
<path d="M709.834 419.047H571.086C565.39 428.715 559.693 438.388 553.95 448.127C536.566 477.613 518.657 508.001 500.996 538.27C524.855 580.853 545.213 618.361 562.91 652.338C598.049 649.708 633.644 646.175 669.008 641.816C708.208 598.255 736.99 545.159 751.434 486.477C739.287 466.521 725.847 444.738 709.834 419.047Z" fill="#6B7280"/>
<path d="M316.77 47.7739C302.137 73.6616 286.747 100.195 270.004 128.393C287.682 162.382 308.069 199.968 332.025 242.73C377.2 242.09 422.798 242.09 467.973 242.73C491.935 199.955 512.324 162.37 529.994 128.393C513.252 100.193 497.861 73.6616 483.231 47.7778C456.493 41.4597 428.627 38.1016 399.989 38.1016C371.358 38.1016 343.499 41.4597 316.77 47.7739Z" fill="#6B7280"/>
<path d="M331.965 280.828C314.249 311.192 296.302 341.645 278.881 371.192C273.194 380.839 267.548 390.42 261.906 399.999C267.548 409.58 273.192 419.161 278.881 428.807C296.302 458.354 314.249 488.807 331.965 519.171C377.179 519.817 422.822 519.817 468.032 519.171C485.756 488.798 503.708 458.335 521.133 428.779C526.815 419.14 532.453 409.569 538.089 399.999C532.453 390.43 526.815 380.859 521.133 371.22C503.706 341.664 485.754 311.201 468.032 280.828C422.821 280.182 377.179 280.182 331.965 280.828Z" fill="#6B7280"/>
<path d="M262.996 65.0566C232.221 77.6909 203.554 94.4338 177.695 114.622C197.514 112.634 217.305 110.91 236.945 109.464C246 94.2166 254.65 79.4719 262.996 65.0566Z" fill="#6B7280"/>
<path d="M760.754 371.162C755.133 380.255 749.196 389.817 742.852 400C749.196 410.183 755.133 419.747 760.754 428.838C761.509 419.324 761.903 409.711 761.903 400.006C761.905 390.297 761.509 380.68 760.754 371.162Z" fill="#6B7280"/>
<path d="M537.008 734.937C567.779 722.305 596.442 705.564 622.299 685.377C602.484 687.364 582.697 689.089 563.055 690.533C554.006 705.777 545.356 720.518 537.008 734.937Z" fill="#6B7280"/>
<path d="M563.055 109.464C582.692 110.91 602.478 112.634 622.295 114.623C596.44 94.4378 567.777 77.6968 537.008 65.0645C545.354 79.4759 554.002 94.2187 563.055 109.464Z" fill="#6B7280"/>
<path d="M39.2423 428.84C44.8614 419.753 50.7985 410.189 57.1471 400C50.8023 389.817 44.8652 380.254 39.2442 371.162C38.4899 380.68 38.0938 390.297 38.0938 400.004C38.0938 409.711 38.4899 419.324 39.2423 428.84Z" fill="#6B7280"/>
<path d="M236.943 690.537C217.305 689.091 197.514 687.366 177.691 685.377C203.552 705.567 232.219 722.31 262.996 734.945C254.648 720.529 245.998 705.785 236.943 690.537Z" fill="#6B7280"/>
<path d="M790.556 313.524C790.455 312.934 790.328 312.349 790.173 311.77C774.486 242.364 740.701 179.751 694.057 129.151C693.08 127.775 691.926 126.532 690.617 125.455C640.065 71.9754 574.958 32.3983 501.699 13.1259C500.954 12.8802 500.198 12.6726 499.429 12.5221C467.625 4.35638 434.307 0.0078125 399.99 0.0078125C365.72 0.0078125 332.446 4.34686 300.68 12.4916C299.869 12.6478 299.072 12.8669 298.288 13.1259C225.03 32.4002 159.926 71.9773 109.375 125.459C108.067 126.535 106.914 127.775 105.937 129.151C59.2952 179.751 25.5105 242.366 9.82476 311.775C9.67238 312.345 9.54667 312.92 9.44762 313.501C3.28 341.37 0 370.309 0 400.004C0 429.701 3.28 458.64 9.44952 486.509C9.54857 487.086 9.67238 487.659 9.82476 488.225C25.5105 557.636 59.2952 620.254 105.941 670.855C106.916 672.227 108.067 673.467 109.371 674.541C159.994 728.101 225.211 767.718 298.598 786.962C299.076 787.111 299.558 787.244 300.048 787.354C332.004 795.604 365.493 799.996 399.99 799.996C434.497 799.996 467.996 795.604 499.96 787.349C500.446 787.238 500.926 787.107 501.402 786.958C574.787 767.713 640.002 728.099 690.625 674.543C691.93 673.469 693.08 672.229 694.055 670.857C740.703 620.255 774.489 557.638 790.177 488.227C790.329 487.655 790.455 487.08 790.554 486.497C796.722 458.633 800.002 429.697 800.002 400.004C800 370.316 796.722 341.385 790.556 313.524ZM576.345 715.931C563.948 722.874 551.751 709.625 558.987 697.397V697.397C561.465 693.211 565.908 690.329 570.758 689.955V689.955C585.691 688.804 592.437 706.73 579.442 714.177C578.413 714.766 577.38 715.351 576.345 715.931ZM578.678 651.101C569.115 651.887 560.047 646.822 555.572 638.334C541.383 611.424 525.552 582.298 507.694 550.252C503.554 542.824 503.628 533.76 507.922 526.42C523.325 500.089 538.836 473.767 553.952 448.128C557.356 442.355 560.744 436.606 564.125 430.867C568.44 423.544 576.305 419.048 584.805 419.048H696.515C704.8 419.048 712.503 423.322 716.877 430.359C727.711 447.788 737.345 463.407 746.241 477.959C749.573 483.41 750.617 489.978 748.918 496.137C734.604 548.026 709.007 595.278 674.93 635.075C671.167 639.47 665.85 642.212 660.105 642.897C632.961 646.132 605.716 648.879 578.678 651.101ZM229.242 689.957C234.094 690.331 238.537 693.215 241.015 697.403V697.403C248.252 709.633 236.053 722.881 223.654 715.936C222.618 715.356 221.585 714.771 220.555 714.181C207.558 706.732 214.306 688.804 229.242 689.957V689.957ZM244.429 638.334C239.954 646.821 230.887 651.886 221.325 651.1C194.296 648.88 167.049 646.133 139.892 642.895C134.148 642.21 128.831 639.468 125.069 635.074C90.9932 595.278 65.3973 548.026 51.0856 496.136C49.3869 489.978 50.4308 483.411 53.7628 477.96C62.6477 463.425 72.2825 447.806 83.127 430.359C87.501 423.322 95.2035 419.048 103.489 419.048H215.199C223.699 419.048 231.564 423.543 235.879 430.866C239.266 436.616 242.66 442.375 246.069 448.156C261.18 473.786 276.686 500.098 292.082 526.419C296.376 533.759 296.45 542.822 292.31 550.25C274.454 582.29 258.622 611.416 244.429 638.334ZM223.653 84.0666C236.051 77.1226 248.251 90.3711 241.014 102.601V102.601C238.536 106.788 234.093 109.671 229.242 110.046V110.046C214.308 111.198 207.56 93.2691 220.556 85.8212C221.585 85.2314 222.618 84.6466 223.653 84.0666ZM221.322 148.901C230.885 148.115 239.952 153.18 244.428 161.667C258.625 188.592 274.459 217.722 292.313 249.758C296.452 257.186 296.378 266.249 292.084 273.589C276.688 299.907 261.174 326.217 246.065 351.844C242.66 357.618 239.262 363.381 235.872 369.132C231.556 376.455 223.69 380.953 215.189 380.953H103.487C95.2015 380.953 87.4991 376.678 83.125 369.642C72.293 352.215 62.6576 336.597 53.761 322.043C50.4289 316.592 49.3852 310.024 51.084 303.866C65.3973 251.976 90.9931 204.724 125.068 164.927C128.831 160.533 134.148 157.79 139.893 157.105C167.043 153.869 194.289 151.122 221.322 148.901ZM530.917 387.819C535.346 395.336 535.346 404.665 530.918 412.182C527.667 417.701 524.409 423.23 521.137 428.779C505.949 454.538 490.361 480.988 474.874 507.466C470.627 514.728 462.893 519.25 454.481 519.346C418.236 519.759 381.77 519.759 345.524 519.346C337.112 519.25 329.379 514.728 325.131 507.467C309.651 480.999 294.068 454.558 278.886 428.808C275.607 423.247 272.343 417.708 269.085 412.178C264.657 404.663 264.656 395.337 269.084 387.821C272.341 382.292 275.606 376.753 278.886 371.193C294.068 345.442 309.651 319.003 325.131 292.534C329.379 285.272 337.112 280.751 345.525 280.655C381.77 280.241 418.237 280.241 454.482 280.655C462.894 280.751 470.627 285.272 474.874 292.533C490.362 319.011 505.95 345.461 521.137 371.221C524.408 376.772 527.666 382.3 530.917 387.819ZM53.9584 394.877C55.8183 397.866 55.817 402.137 53.9571 405.125V405.125C49.2438 412.698 38.1126 409.595 38.0959 400.675C38.0954 400.452 38.0952 400.228 38.0952 400.004C38.0952 399.777 38.0955 399.55 38.0959 399.323C38.1129 390.403 49.245 387.303 53.9584 394.877V394.877ZM746.044 405.124C744.184 402.135 744.183 397.866 746.044 394.878V394.878C750.757 387.305 761.889 390.404 761.906 399.324C761.906 399.551 761.907 399.777 761.907 400.004C761.907 400.228 761.906 400.452 761.906 400.676C761.889 409.597 750.757 412.698 746.044 405.124V405.124ZM716.877 369.641C712.503 376.678 704.8 380.953 696.514 380.953H584.811C576.31 380.953 568.444 376.455 564.127 369.132C560.743 363.39 557.35 357.637 553.95 351.873C538.837 326.239 523.317 299.917 507.914 273.589C503.62 266.25 503.546 257.186 507.686 249.758C525.545 217.714 541.377 188.585 555.57 161.667C560.046 153.18 569.113 148.115 578.676 148.901C605.708 151.122 632.953 153.867 660.1 157.103C665.845 157.788 671.161 160.53 674.924 164.925C709.003 204.722 734.6 251.976 748.914 303.866C750.613 310.024 749.569 316.592 746.237 322.043C737.34 336.599 727.706 352.217 716.877 369.641ZM570.758 110.045C565.907 109.671 561.464 106.787 558.986 102.601V102.601C551.751 90.3739 563.948 77.1286 576.343 84.0712C577.379 84.6513 578.412 85.2364 579.441 85.8263C592.434 93.2725 585.689 111.196 570.758 110.045V110.045ZM523.194 116.902C527.414 124.052 527.674 132.873 523.811 140.222C509.406 167.627 493.257 197.379 474.947 230.249C470.661 237.943 462.489 242.647 453.682 242.549C417.964 242.15 382.037 242.15 346.319 242.549C337.512 242.647 329.34 237.943 325.054 230.249C306.749 197.388 290.601 167.635 276.192 140.222C272.329 132.873 272.589 124.051 276.808 116.901C289.029 96.1935 300.543 76.3345 311.596 56.9012C314.903 51.0861 320.465 46.8579 327.017 45.51C350.595 40.6599 374.999 38.1011 399.992 38.1011C424.993 38.1011 449.404 40.6615 472.988 45.5135C479.541 46.8616 485.102 51.0902 488.41 56.9056C499.46 76.3362 510.974 96.1937 523.194 116.902ZM327.015 754.49C320.463 753.142 314.902 748.914 311.594 743.1C300.541 723.667 289.027 703.808 276.806 683.099C272.586 675.949 272.327 667.127 276.189 659.778C290.591 632.381 306.733 602.64 325.033 569.786C329.319 562.092 337.491 557.388 346.298 557.486C382.024 557.885 417.977 557.885 453.7 557.486C462.507 557.388 470.679 562.091 474.965 569.786C493.271 602.649 509.412 632.389 523.809 659.779C527.672 667.127 527.412 675.949 523.192 683.099C510.978 703.797 499.464 723.655 488.405 743.097C485.098 748.911 479.538 753.139 472.986 754.487C449.4 759.34 424.988 761.899 399.989 761.899C374.997 761.899 350.593 759.34 327.015 754.49Z" fill="#374151"/>
</g>
<defs>
<clipPath id="clip0_5475_1129">
<rect width="800" height="800" rx="40" fill="white"/>
</clipPath>
</defs>
</svg>
